<svg xmlns="http://www.w3.org/2000/svg" viewBox="0 0 128 128"><rect width="128" height="128" fill="#e2d1bd"/><path d="M40 74 C30 84 22 88 20 98 C18 106 26 108 28 102" fill="none" stroke="#606350" stroke-width="8" stroke-linecap="round"/><path d="M50 78 C46 90 40 98 42 106 C44 112 51 110 49 104" fill="none" stroke="#606350" stroke-width="8" stroke-linecap="round"/><path d="M64 80 C64 92 62 100 64 108 C66 114 72 110 70 104" fill="none" stroke="#606350" stroke-width="8" stroke-linecap="round"/><path d="M78 78 C82 90 88 98 86 106 C84 112 77 110 79 104" fill="none" stroke="#606350" stroke-width="8" stroke-linecap="round"/><path d="M88 74 C98 84 106 88 108 98 C110 106 102 108 100 102" fill="none" stroke="#606350" stroke-width="8" stroke-linecap="round"/><path d="M64 22 C86 22 96 40 94 58 C92 74 80 82 64 82 C48 82 36 74 34 58 C32 40 42 22 64 22 Z" fill="#606350"/><path d="M50 56 L60 56 M68 56 L78 56" stroke="#f3ebde" stroke-width="3" stroke-linecap="round"/><path d="M57 64 Q64 71 71 64" fill="none" stroke="#f3ebde" stroke-width="3" stroke-linecap="round"/><circle cx="47" cy="63" r="4" fill="#e9a58f" opacity=".55"/><circle cx="81" cy="63" r="4" fill="#e9a58f" opacity=".55"/><text x="92" y="30" font-family="Arial, sans-serif" font-weight="700" font-size="14" fill="#674329">z</text><text x="102" y="20" font-family="Arial, sans-serif" font-weight="700" font-size="10" fill="#674329">z</text></svg>