<svg xmlns="http://www.w3.org/2000/svg" viewBox="0 0 128 128"><rect width="128" height="128" fill="#d2a772"/><path d="M40 74 C30 84 22 88 20 98 C18 106 26 108 28 102" fill="none" stroke="#151a13" stroke-width="8" stroke-linecap="round"/><path d="M50 78 C46 90 40 98 42 106 C44 112 51 110 49 104" fill="none" stroke="#151a13" stroke-width="8" stroke-linecap="round"/><path d="M64 80 C64 92 62 100 64 108 C66 114 72 110 70 104" fill="none" stroke="#151a13" stroke-width="8" stroke-linecap="round"/><path d="M78 78 C82 90 88 98 86 106 C84 112 77 110 79 104" fill="none" stroke="#151a13" stroke-width="8" stroke-linecap="round"/><path d="M88 74 C98 84 106 88 108 98 C110 106 102 108 100 102" fill="none" stroke="#151a13" stroke-width="8" stroke-linecap="round"/><path d="M64 22 C86 22 96 40 94 58 C92 74 80 82 64 82 C48 82 36 74 34 58 C32 40 42 22 64 22 Z" fill="#151a13"/><circle cx="55" cy="54" r="4.2" fill="#f3ebde"/><path d="M68 55 Q73 51 78 55" fill="none" stroke="#f3ebde" stroke-width="3" stroke-linecap="round"/><path d="M57 64 Q64 71 71 64" fill="none" stroke="#f3ebde" stroke-width="3" stroke-linecap="round"/><circle cx="47" cy="63" r="4" fill="#e9a58f" opacity=".55"/><circle cx="81" cy="63" r="4" fill="#e9a58f" opacity=".55"/><path d="M100 14 L103 21 L110 22 L105 27 L106 34 L100 30 L94 34 L95 27 L90 22 L97 21 Z" fill="#f7dbb4"/></svg>