<?xml version="1.0" standalone="no"?>
<!DOCTYPE svg PUBLIC "-//W3C//DTD SVG 1.0//EN" "http://www.w3.org/TR/2001/REC-SVG-20010904/DTD/svg10.dtd">
<svg xmlns="http://www.w3.org/2000/svg" xmlns:xlink="http://www.w3.org/1999/xlink" id="body_1" width="148" height="111">

<g transform="matrix(0.45962733 0 0 0.4586777 0 0)">
	<g transform="matrix(0.8994414 0 0 0.89962834 0 0)">
		<g transform="matrix(0.6314713 0 0 0.6314713 -0 13.863742)">
			<g>
				<g>
                    <path d="M566.93 191.04L408.71 47.17C 339.53998 -15.720001 227.38998 -15.720001 158.21999 47.17L158.21999 47.17L0 191.04L158.22 334.90997C 227.39 397.80997 339.54 397.80997 408.71002 334.90997L408.71002 334.90997L566.93 191.04z" stroke="none" fill="#DC004E" fill-rule="nonzero" />
				</g>
                <path d="M366.56 191.45C 355.69 182.31999 337.63998 175.67 312.41998 171.48999L312.41998 171.48999L270.15997 164.45C 264.23996 163.4 260.19998 162.19 258.02997 160.8C 255.84998 159.41 254.76997 157.32 254.76997 154.54001C 254.76997 153.52 254.93997 152.56001 255.27997 151.67001C 256.56998 148.29001 260.31998 146.53001 261.31998 146.07C 269.93997 142.11 285.40997 143.74 285.40997 143.74C 290.34998 144.26001 304.26996 145.73001 314.92996 144.27C 333.66995 141.71 346.45996 129.54001 350.49997 125.600006C 352.47998 123.670006 354.23996 121.700005 355.83997 119.73L355.83997 119.73L320.84998 89.520004C 319.33997 91.36 317.47998 93.11 315.11 94.48C 310.40997 96.950005 306.52 97.62 303.86 97.770004C 299.41998 98.03001 295.78 97.020004 285.12 96.880005C 285.11 96.880005 285.06 96.880005 285.05 96.880005C 285.05 96.880005 285.09 96.880005 285.03 96.880005C 254.94 96.880005 231.42 102.14001 214.45999 112.66C 197.5 123.18001 189.01999 137.75 189.01999 156.36C 189.01999 172.88 195.18999 186.06 207.54 195.89C 219.89 205.72 238.93 212.63 264.66998 216.63L264.66998 216.63L298.33 221.85C 304.59 222.89 309.15997 224.24 312.03 225.89C 314.9 227.54 316.34 229.85 316.34 232.8C 316.34 242.02 305.63998 246.63 284.25 246.63C 264.25 246.63 252.85 239.41 250.07 224.98001L250.07 224.98001L184.06 224.98001C 188.06 270.03 221.37 292.55002 283.97998 292.55002C 349.88998 292.55002 382.86 271.85 382.86 230.45001C 382.87 213.59 377.43 200.59 366.56 191.45z" stroke="none" fill="#FFFFFF" fill-rule="nonzero" />
			</g>
		</g>
	</g>
</g>
</svg>